<?xml version="1.0" encoding="UTF-8"?>
<svg version="1.1" xmlns="http://www.w3.org/2000/svg" width="576" height="499">
<path d="M0 0 C66.81933168 27.70111395 109.50108478 24.08530018 175.7734375 -2.20117188 C177.3368689 -2.81992188 177.3368689 -2.81992188 178.93188477 -3.45117188 C180.83128633 -4.20649311 182.72790808 -4.96886622 184.62084961 -5.74023438 C193.17423589 -9.16649288 201.0485959 -10.88473196 210.2734375 -10.81835938 C211.10302979 -10.81271973 211.93262207 -10.80708008 212.78735352 -10.80126953 C230.56829649 -10.45184347 245.2050092 -2.61802097 257.5234375 9.93164062 C261.17541998 14.12726323 263.8337602 18.49904349 266.3359375 23.43164062 C266.81848999 24.37898071 266.81848999 24.37898071 267.31079102 25.34545898 C272.57441372 36.32212288 273.35392565 46.79987014 273.1394043 58.80322266 C273.12219282 60.42254595 273.10657205 62.04188681 273.09240723 63.66123962 C273.06025658 67.12937859 273.02001985 70.59729535 272.9742794 74.06528091 C272.90491171 79.56517452 272.87304092 85.06489641 272.8495636 90.56515503 C272.8433371 91.96329018 272.8433371 91.96329018 272.83698481 93.38967049 C272.82853858 95.29469142 272.82016182 97.19971265 272.81185305 99.10473418 C272.75420791 111.89254138 272.67081417 124.67909211 272.49145508 137.46582031 C272.37041708 146.11529915 272.30714273 154.763155 272.30849963 163.41350639 C272.3069166 167.97921152 272.27695903 172.54055584 272.17575645 177.10522842 C270.91395202 198.77815031 270.91395202 198.77815031 279.45737171 217.78652763 C282.12710591 220.40957169 284.89520501 222.73218991 287.91675758 224.9381218 C291.26951358 227.49022175 294.10378769 230.53153066 297.0234375 233.55664062 C298.01148524 234.52958287 299.00191387 235.50012148 299.99609375 236.46679688 C302.20656037 238.67134722 304.26438671 240.96795971 306.30078125 243.33398438 C310.14271259 247.77484998 314.27334005 251.88145548 318.4609375 255.99414062 C323.23974552 260.68746013 327.83248844 265.43406041 332.20117188 270.51171875 C335.29487756 273.99685889 338.63530228 277.23221489 341.9609375 280.49414062 C346.63952372 285.08309876 351.11371659 289.74488585 355.38916016 294.71289062 C357.3557892 296.94161468 359.47666009 298.9666285 361.6484375 300.99414062 C369.02008892 308.40353087 370.40620727 313.64189103 370.39453125 324.12695312 C369.58024861 330.45048136 366.73200994 334.39209959 361.9609375 338.49414062 C359.5873733 339.943411 357.32172743 341.21963271 354.8359375 342.43164062 C353.78986328 342.94259277 353.78986328 342.94259277 352.72265625 343.46386719 C324.88763769 356.60544454 292.27867293 359.5875341 261.9609375 355.49414062 C261.72117187 356.18636719 261.48140625 356.87859375 261.234375 357.59179688 C259.73376735 361.01189346 257.76568943 363.9225569 255.5859375 366.93164062 C254.92501099 367.84635132 254.92501099 367.84635132 254.25073242 368.77954102 C240.68215492 387.27696662 224.64818513 403.20778069 205.9609375 416.49414062 C205.31092773 416.95691406 204.66091797 417.4196875 203.99121094 417.89648438 C180.42975543 434.49414062 180.42975543 434.49414062 173.9609375 434.49414062 C174.37085938 435.01363281 174.78078125 435.533125 175.203125 436.06835938 C175.74195313 436.76574219 176.28078125 437.463125 176.8359375 438.18164062 C177.36960937 438.86613281 177.90328125 439.550625 178.453125 440.25585938 C182.90873653 446.87001846 182.67012756 453.75433803 181.9609375 461.49414062 C179.99384559 468.34174704 175.44888755 473.12421325 169.3984375 476.74414062 C165.25850004 478.85174515 162.14336279 479.61147609 157.53466797 479.67114258 C156.66631317 479.68397781 155.79795837 479.69681305 154.90328979 479.71003723 C153.50483322 479.72111763 153.50483322 479.72111763 152.078125 479.73242188 C151.1086795 479.74049362 150.13923401 479.74856537 149.14041138 479.75688171 C147.08776629 479.77070316 145.0350984 479.78143398 142.98242188 479.78930664 C140.89543872 479.80080383 138.80848444 479.82121957 136.72167969 479.85083008 C133.69445967 479.89376767 130.66811279 479.90971384 127.640625 479.91992188 C126.720466 479.93742996 125.80030701 479.95493805 124.8522644 479.97297668 C116.80805985 479.94645271 110.40287693 477.70217724 103.6484375 473.36914062 C99.35519689 468.7763716 96.08398703 463.56675967 95.828125 457.17773438 C95.89386719 455.84935547 95.89386719 455.84935547 95.9609375 454.49414062 C94.6925 454.61982422 94.6925 454.61982422 93.3984375 454.74804688 C87.03519513 455.3192925 81.25945088 455.60564299 74.9609375 454.49414062 C74.9196875 455.79351562 74.8784375 457.09289062 74.8359375 458.43164062 C74.10342286 464.89201275 70.94609533 469.68658944 66.25390625 474.09960938 C59.44639718 479.33970101 52.27837705 479.80335478 43.96875 479.79492188 C43.02337372 479.799207 42.07799744 479.80349213 41.10397339 479.8079071 C39.11212969 479.81362743 37.12026512 479.81416769 35.12841797 479.80981445 C32.1021716 479.80665756 29.07690683 479.83013214 26.05078125 479.85546875 C24.10677205 479.85774248 22.16276026 479.8584449 20.21875 479.85742188 C18.87769699 479.8712365 18.87769699 479.8712365 17.509552 479.8853302 C8.88960341 479.82272598 0.20871787 477.8196297 -6.0390625 471.49414062 C-10.640327 464.83065136 -12.84546211 458.65893671 -12.0390625 450.49414062 C-10.7230193 444.77515879 -8.52716509 440.18503721 -5.0390625 435.49414062 C-6.26496094 435.13642578 -6.26496094 435.13642578 -7.515625 434.77148438 C-11.73700526 433.24111703 -15.50337873 431.24660664 -19.4140625 429.05664062 C-20.20063232 428.61634521 -20.98720215 428.1760498 -21.79760742 427.72241211 C-34.90380224 420.26378383 -46.81596381 411.54467677 -58.0390625 401.49414062 C-58.60286621 400.99205078 -59.16666992 400.48996094 -59.74755859 399.97265625 C-66.24818079 394.15947713 -72.56378266 388.30543647 -78.0390625 381.49414062 C-78.86792969 380.47964844 -79.69679688 379.46515625 -80.55078125 378.41992188 C-81.48577297 377.25828529 -82.41935904 376.09551595 -83.3515625 374.93164062 C-83.7655127 374.42068848 -84.17946289 373.90973633 -84.60595703 373.38330078 C-85.03376465 372.84108887 -85.46157227 372.29887695 -85.90234375 371.74023438 C-86.38582275 371.13711426 -86.86930176 370.53399414 -87.36743164 369.91259766 C-88.78252454 367.86529077 -89.86141144 365.92546647 -90.97436523 363.71240234 C-94.64506141 356.41990884 -94.64506141 356.41990884 -100.98202515 351.73068237 C-105.63375716 350.85821012 -110.25529321 351.14598639 -114.94885254 351.53530884 C-118.36471686 351.81751726 -121.77998337 351.93087883 -125.2046814 352.05354309 C-126.88292861 352.11510706 -128.56089335 352.1849767 -130.23843384 352.26347351 C-139.13597565 352.66596232 -147.40983183 351.62135598 -156.0390625 349.49414062 C-156.77350586 349.32253418 -157.50794922 349.15092773 -158.26464844 348.97412109 C-191.13643721 341.15781603 -191.13643721 341.15781603 -199.9140625 328.86914062 C-202.8732078 322.62205611 -203.203285 314.94650506 -201.4609375 308.28320312 C-197.28565034 298.98369991 -188.47877592 291.86845769 -181.33520508 284.80883789 C-178.68692311 282.18246693 -176.13174654 279.53200011 -173.7265625 276.68164062 C-170.22459453 272.55710057 -166.38041278 268.79843012 -162.5390625 264.99414062 C-158.17374549 260.67085844 -153.93292281 256.34737221 -149.97265625 251.64648438 C-146.52949163 247.81379002 -142.81091283 244.24767253 -139.14990234 240.62451172 C-136.19012518 237.6836519 -133.29194887 234.75016419 -130.6015625 231.55664062 C-126.54695987 226.7554104 -122.00016994 222.43121674 -117.53881836 218.01342773 C-113.16748338 213.6684294 -108.98922632 209.22873414 -105.0390625 204.49414062 C-104.7090625 204.16414062 -104.3790625 203.83414063 -104.0390625 203.49414062 C-103.93876592 201.45005525 -103.90996328 199.40245458 -103.90776062 197.35591125 C-103.90564491 196.70748282 -103.90352919 196.05905439 -103.90134937 195.39097661 C-103.89532232 193.20179656 -103.89635147 191.01267371 -103.8972168 188.82348633 C-103.89418678 187.25986635 -103.89066576 185.69624725 -103.88668823 184.13262939 C-103.87878165 180.75501214 -103.87364749 177.37740553 -103.87039757 173.99978065 C-103.86449175 168.64843639 -103.84795151 163.29715883 -103.82905579 157.94584656 C-103.82271747 156.11339669 -103.81639186 154.28094677 -103.81007862 152.44849682 C-103.80691281 151.53041725 -103.803747 150.61233767 -103.80048525 149.66643751 C-103.75844646 137.20496471 -103.72548409 124.7435213 -103.71313477 112.28198242 C-103.70472568 103.8829115 -103.68212263 95.48400411 -103.6437791 87.085015 C-103.6240992 82.64339069 -103.61158651 78.20201039 -103.61661339 73.76033974 C-103.62129715 69.57003801 -103.60725356 65.38019631 -103.57960129 61.18998718 C-103.57274924 59.66234027 -103.57249742 58.13464517 -103.57980156 56.60700035 C-103.66394614 37.00859909 -97.76531394 20.77028812 -84.0390625 6.49414062 C-57.98130824 -16.97631889 -29.62638709 -12.29994385 0 0 Z " fill="#58CC02" transform="translate(202.0390625,16.505859375)"/>
<path d="M0 0 C4.53057286 2.6599248 7.99019434 5.8358523 11.4375 9.75 C11.91775635 10.28439697 12.3980127 10.81879395 12.89282227 11.36938477 C15.98360569 14.81797721 19.02623852 18.30859819 22.05859375 21.80859375 C25.18069199 25.33273281 28.39597143 28.77045368 31.59741211 32.22241211 C34.27401038 35.11364128 36.92311179 38.01889404 39.5 41 C43.07748937 45.13729211 46.79373258 49.14295778 50.52734375 53.13916016 C53.47212139 56.30019491 56.26206763 59.53117863 59 62.875 C64.48391564 69.1192905 72.61458158 74.45012135 81.05541992 75.17700195 C94.64056074 75.85170835 94.64056074 75.85170835 107 71 C107.69480469 70.61070313 108.38960937 70.22140625 109.10546875 69.8203125 C118.52203225 64.18704089 126.10026832 55.41044304 133.16015625 47.125 C135.5502683 44.36444595 138.02485494 41.6840023 140.5 39 C143.53915314 35.69996877 146.56156735 32.39049921 149.5 29 C152.9026369 25.0738805 156.41909174 21.25493377 159.94213867 17.43725586 C162.62355421 14.52517096 165.24443824 11.57470548 167.8125 8.5625 C168.86848955 7.36920684 169.93043872 6.18114401 171 5 C171.47566406 4.46117187 171.95132812 3.92234375 172.44140625 3.3671875 C174.49371122 1.32047464 176.30361116 0.09153246 179.19921875 -0.2890625 C183.33291571 -0.11141602 185.48129528 0.56573558 188.6875 3.25 C193.10853903 9.62059443 196.60899974 17.0505957 197.65625 24.72265625 C198.31342869 27.96973159 198.31342869 27.96973159 200.63208008 30.16625977 C202.84056953 31.0081293 205.01067629 31.5893378 207.3125 32.125 C208.96087402 32.59402559 210.60673177 33.07198153 212.25 33.55859375 C213.06082031 33.79433105 213.87164062 34.03006836 214.70703125 34.27294922 C233.62868972 40.27259774 247.49511499 55.86553611 256.375 72.9375 C256.69702393 73.54489014 257.01904785 74.15228027 257.35083008 74.77807617 C263.43140988 87.1307121 263.43790606 100.12076961 263.36328125 113.546875 C263.36276128 115.41245524 263.36328425 117.27803602 263.36479187 119.14361572 C263.36470274 123.02991039 263.35439158 126.91599505 263.33618164 130.80224609 C263.31343319 135.7637543 263.31296834 140.72495826 263.31969929 145.68650436 C263.32305153 149.52997506 263.31638661 153.37337734 263.30657005 157.21683502 C263.30274418 159.04592785 263.30155889 160.87502832 263.3031559 162.70412445 C263.30352984 165.26350755 263.29081727 167.82251042 263.2746582 170.38183594 C263.27837433 171.4948835 263.27837433 171.4948835 263.28216553 172.63041687 C263.09143889 191.71134929 253.81815993 209.31630516 241 223 C229.58711908 234.0193333 216.29741667 240.38498965 201 244 C200.05737305 244.26151855 200.05737305 244.26151855 199.09570312 244.52832031 C180.25129696 248.76962888 161.09831998 242.48716631 145 233 C141.74773825 230.8908126 138.8599516 228.61266255 136 226 C134.75476563 224.87464844 134.75476563 224.87464844 133.484375 223.7265625 C128.23969512 218.74882741 124.16165681 213.66313654 120.47265625 207.4453125 C119.10454155 205.17358888 117.62842086 203.09021185 116 201 C115.731875 201.58007812 115.46375 202.16015625 115.1875 202.7578125 C111.43519319 210.23773989 106.89954442 213.70615034 99.8125 217.875 C90.44406858 220.63945517 81.54920129 219.61945586 73 215 C68.27190918 212.05807682 65.49598743 207.90700507 63 203 C63 202.34 63 201.68 63 201 C62.34 201 61.68 201 61 201 C60.59587891 202.07894531 60.59587891 202.07894531 60.18359375 203.1796875 C53.34730905 219.46944839 39.36103203 231.25068278 23.640625 238.5625 C20.4566543 239.842182 17.26847473 240.95686977 14 242 C13.08347656 242.31839844 12.16695313 242.63679687 11.22265625 242.96484375 C-7.41583448 248.63742789 -27.3529628 245.00783169 -44.3371582 236.27099609 C-63.80260752 225.66753133 -76.72296664 207.95455037 -83 187 C-85.59693292 177.77707283 -85.32773054 168.36035175 -85.3359375 158.8671875 C-85.34238019 157.10376889 -85.34910959 155.3403513 -85.35610962 153.57693481 C-85.36803609 149.89045743 -85.3717954 146.20407341 -85.37060547 142.51757812 C-85.37040291 137.83788217 -85.39766096 133.15879774 -85.43214989 128.47924614 C-85.45460152 124.83793495 -85.45843743 121.19676648 -85.45738602 117.55539322 C-85.45971632 115.83254014 -85.46839113 114.10968152 -85.48405075 112.38689804 C-85.60167885 98.10642558 -84.11421081 84.36979018 -77.1875 71.5625 C-76.84058105 70.89911621 -76.49366211 70.23573242 -76.13623047 69.55224609 C-73.2809292 64.23129899 -70.07620326 59.47203292 -66 55 C-65.27296875 54.18144531 -64.5459375 53.36289063 -63.796875 52.51953125 C-52.62030056 40.60386075 -38.03348161 32.93947163 -22 30 C-21.67128906 28.69289063 -21.67128906 28.69289063 -21.3359375 27.359375 C-15.72526644 6.28514713 -15.72526644 6.28514713 -9 1.25 C-5.57444613 -0.17731411 -3.66687653 -0.61114609 0 0 Z " fill="#89E119" transform="translate(198,38)"/>
<path d="M0 0 C0.82508057 0.38945801 1.65016113 0.77891602 2.50024414 1.18017578 C3.41797607 1.61958496 4.33570801 2.05899414 5.28125 2.51171875 C19.33570228 9.09326122 33.56664372 15.25759154 47.81738281 21.40014648 C56.68427969 25.2255848 65.54050309 29.06209781 74.32200623 33.08059692 C77.87888979 34.70801279 81.44388566 36.31722384 85.00924683 37.92596436 C86.67328788 38.68359324 88.3330457 39.45071066 89.98806763 40.22784424 C100.67194706 45.6937144 100.67194706 45.6937144 112.1940918 45.19775391 C113.047854 44.8682373 113.90161621 44.5387207 114.78125 44.19921875 C117.14559418 43.47541493 119.51168869 42.75731907 121.87890625 42.04296875 C123.26789675 41.60148903 124.65603942 41.15733564 126.04345703 40.7109375 C131.50227829 38.96018515 136.98319025 37.28310661 142.46484375 35.60546875 C144.01554062 35.13028809 144.01554062 35.13028809 145.5975647 34.64550781 C147.72812986 33.99273821 149.85877655 33.34023464 151.98950195 32.68798828 C155.21011096 31.70186395 158.43025853 30.71424287 161.65039062 29.7265625 C170.6825904 26.95932337 179.71520587 24.19983903 188.78515625 21.55859375 C194.25635679 19.96508074 199.69785694 18.29628302 205.125 16.55859375 C205.80148087 16.34267578 206.47796173 16.12675781 207.17494202 15.90429688 C209.90628118 15.03178149 212.63725425 14.15844944 215.36425781 13.27246094 C230.53212477 8.35411459 230.53212477 8.35411459 237.78125 8.19921875 C239.78125 10.19921875 239.78125 10.19921875 240.0703125 13.23046875 C239.72281085 18.00157243 238.58561034 22.15292506 237.15625 26.69921875 C236.88409668 27.5799707 236.61194336 28.46072266 236.33154297 29.36816406 C232.30072177 42.16921582 227.0322167 54.22709388 220.85205078 66.12255859 C219.75538499 68.24938013 218.68719904 70.38896826 217.62109375 72.53125 C213.20703876 81.28489424 208.34791496 89.11156946 202.07275391 96.64746094 C200.7752337 98.20644741 199.50219296 99.78321612 198.23046875 101.36328125 C186.37427755 115.91930925 173.07501152 128.32557784 157.78125 139.19921875 C157.13124023 139.66199219 156.48123047 140.12476563 155.81152344 140.6015625 C132.25006793 157.19921875 132.25006793 157.19921875 125.78125 157.19921875 C126.19117188 157.71871094 126.60109375 158.23820313 127.0234375 158.7734375 C127.56226563 159.47082031 128.10109375 160.16820312 128.65625 160.88671875 C129.18992187 161.57121094 129.72359375 162.25570312 130.2734375 162.9609375 C134.72904903 169.57509659 134.49044006 176.45941615 133.78125 184.19921875 C131.81415809 191.04682517 127.26920005 195.82929137 121.21875 199.44921875 C117.07881254 201.55682328 113.96367529 202.31655421 109.35498047 202.3762207 C108.48662567 202.38905594 107.61827087 202.40189117 106.72360229 202.41511536 C105.79129791 202.42250229 104.85899353 202.42988922 103.8984375 202.4375 C102.44426926 202.44960762 102.44426926 202.44960762 100.96072388 202.46195984 C98.90807879 202.47578129 96.8554109 202.4865121 94.80273438 202.49438477 C92.71575122 202.50588196 90.62879694 202.52629769 88.54199219 202.5559082 C85.51477217 202.59884579 82.48842529 202.61479196 79.4609375 202.625 C78.5407785 202.64250809 77.62061951 202.66001617 76.6725769 202.67805481 C68.62837235 202.65153084 62.22318943 200.40725536 55.46875 196.07421875 C51.17550939 191.48144972 47.90429953 186.2718378 47.6484375 179.8828125 C47.71417969 178.55443359 47.71417969 178.55443359 47.78125 177.19921875 C46.935625 177.28300781 46.09 177.36679687 45.21875 177.453125 C38.85550763 178.02437062 33.07976338 178.31072111 26.78125 177.19921875 C26.74 178.49859375 26.69875 179.79796875 26.65625 181.13671875 C25.92373536 187.59709088 22.76640783 192.39166756 18.07421875 196.8046875 C11.26670968 202.04477913 4.09868955 202.50843291 -4.2109375 202.5 C-5.15631378 202.50428513 -6.10169006 202.50857025 -7.07571411 202.51298523 C-9.06755781 202.51870555 -11.05942238 202.51924581 -13.05126953 202.51489258 C-16.0775159 202.51173568 -19.10278067 202.53521027 -22.12890625 202.56054688 C-24.07291545 202.56282061 -26.01692724 202.56352302 -27.9609375 202.5625 C-29.30199051 202.57631462 -29.30199051 202.57631462 -30.6701355 202.59040833 C-39.29008409 202.5278041 -47.97096963 200.52470783 -54.21875 194.19921875 C-58.8200145 187.53572948 -61.02514961 181.36401484 -60.21875 173.19921875 C-58.9027068 167.48023692 -56.70685259 162.89011533 -53.21875 158.19921875 C-54.03601563 157.96074219 -54.85328125 157.72226562 -55.6953125 157.4765625 C-59.91669276 155.94619516 -63.68306623 153.95168477 -67.59375 151.76171875 C-68.38031982 151.32142334 -69.16688965 150.88112793 -69.97729492 150.42749023 C-83.08348974 142.96886196 -94.99565131 134.24975489 -106.21875 124.19921875 C-106.78255371 123.69712891 -107.34635742 123.19503906 -107.92724609 122.67773438 C-114.42786829 116.86455526 -120.74347016 111.01051459 -126.21875 104.19921875 C-127.04761719 103.18472656 -127.87648437 102.17023438 -128.73046875 101.125 C-131.63186752 97.53680662 -134.43877496 93.88197425 -137.21875 90.19921875 C-137.84354248 89.38300049 -137.84354248 89.38300049 -138.48095703 88.55029297 C-150.93491141 72.03712312 -158.89470665 52.05987243 -165.46875 32.57421875 C-166.02477905 30.93211426 -166.02477905 30.93211426 -166.59204102 29.25683594 C-168.56623661 23.12626455 -170.58143522 16.71611675 -170.21875 10.19921875 C-169.55875 9.53921875 -168.89875 8.87921875 -168.21875 8.19921875 C-165.71802569 8.25365193 -163.38147808 8.45365003 -160.90625 8.76171875 C-159.69485352 8.9011792 -159.69485352 8.9011792 -158.45898438 9.04345703 C-140.32085651 11.19549332 -122.19770166 13.66575556 -104.140625 16.4140625 C-102.91988281 16.59984863 -101.69914062 16.78563477 -100.44140625 16.97705078 C-98.20339141 17.32162703 -95.96631637 17.6723923 -93.73046875 18.03076172 C-90.89691723 18.4699622 -88.06532815 18.85553321 -85.21875 19.19921875 C-84.51322998 19.29557617 -83.80770996 19.39193359 -83.08081055 19.49121094 C-75.68900089 20.02905275 -68.73081583 17.04138239 -61.86456299 14.63998413 C-59.49778518 13.81251889 -57.1256507 13.00247686 -54.75146484 12.1965332 C-48.39413927 10.03387642 -42.04960582 7.83456371 -35.70556641 5.63330078 C-32.23518689 4.42964703 -28.76089891 3.23792098 -25.2840271 2.05316162 C-23.38121533 1.39958727 -21.48410395 0.72949153 -19.5871582 0.05908203 C-18.43691162 -0.33424316 -17.28666504 -0.72756836 -16.1015625 -1.1328125 C-14.60713623 -1.65452026 -14.60713623 -1.65452026 -13.08251953 -2.18676758 C-8.28081044 -3.21629003 -4.34417636 -2.09348612 0 0 Z " fill="#CCF58E" transform="translate(250.21875,293.80078125)"/>
<path d="M0 0 C19.75182839 16.71167394 19.75182839 16.71167394 23.43994141 27.75585938 C23.02004595 31.7200597 22.00984472 33.6961936 19.22119141 36.50585938 C18.20677979 37.53247681 18.20677979 37.53247681 17.171875 38.57983398 C16.43533691 39.29792236 15.69879883 40.01601074 14.93994141 40.75585938 C14.17891113 41.50552979 13.41788086 42.2552002 12.63378906 43.02758789 C5.08411336 50.32643607 -2.9923398 56.70347182 -11.56005859 62.75585938 C-12.20716797 63.21573242 -12.85427734 63.67560547 -13.52099609 64.14941406 C-37.089883 80.75585938 -37.089883 80.75585938 -43.56005859 80.75585938 C-43.15013672 81.27535156 -42.74021484 81.79484375 -42.31787109 82.33007812 C-41.77904297 83.02746094 -41.24021484 83.72484375 -40.68505859 84.44335938 C-40.15138672 85.12785156 -39.61771484 85.81234375 -39.06787109 86.51757812 C-34.61225956 93.13173721 -34.85086854 100.01605678 -35.56005859 107.75585938 C-37.5271505 114.60346579 -42.07210855 119.385932 -48.12255859 123.00585938 C-52.26249606 125.1134639 -55.37763331 125.87319484 -59.98632812 125.93286133 C-60.85468292 125.94569656 -61.72303772 125.9585318 -62.6177063 125.97175598 C-63.55001068 125.97914291 -64.48231506 125.98652985 -65.44287109 125.99414062 C-66.89703934 126.00624825 -66.89703934 126.00624825 -68.38058472 126.01860046 C-70.43322981 126.03242191 -72.48589769 126.04315273 -74.53857422 126.05102539 C-76.62555737 126.06252258 -78.71251165 126.08293832 -80.79931641 126.11254883 C-83.82653642 126.15548642 -86.8528833 126.17143259 -89.88037109 126.18164062 C-90.80053009 126.19914871 -91.72068909 126.2166568 -92.66873169 126.23469543 C-100.71293625 126.20817146 -107.11811917 123.96389599 -113.87255859 119.63085938 C-118.25881095 114.93858941 -121.85912849 109.23847209 -121.87255859 102.63085938 C-121.76943359 101.68210937 -121.66630859 100.73335938 -121.56005859 99.75585938 C-122.88005859 99.75585938 -124.20005859 99.75585938 -125.56005859 99.75585938 C-134.07178632 80.10823489 -136.87710932 58.79462978 -129.37255859 38.25585938 C-124.19525976 25.78532218 -118.08870182 16.17606853 -108.56005859 6.75585938 C-107.82916016 6.01464844 -107.09826172 5.2734375 -106.34521484 4.50976562 C-78.55235979 -22.04095066 -30.11772846 -24.01877061 0 0 Z " fill="#B2E762" transform="translate(419.56005859375,370.244140625)"/>
<path d="M0 0 C13.54020593 10.28590751 20.81970712 22.44169777 24 39 C24.3979568 43.31599979 24.4449589 47.59724727 24.43359375 51.9296875 C24.4388356 53.12248322 24.44407745 54.31527893 24.44947815 55.54421997 C24.45585936 58.05014269 24.45461243 60.55609552 24.44604492 63.06201172 C24.43753743 66.85829964 24.46635095 70.65307892 24.49804688 74.44921875 C24.55579249 94.43914154 22.44542595 112.84189649 8 128 C-4.5279389 139.10199464 -18.49908966 143.43689321 -35.08984375 143.2734375 C-49.40157393 142.27261721 -62.01826872 135.04063249 -71.7421875 124.73828125 C-77.86608929 117.3111962 -81.80031713 109.34019187 -84 100 C-84.17215027 99.40888428 -84.34430054 98.81776855 -84.52166748 98.20874023 C-85.08805934 95.59337865 -85.14224223 93.18068544 -85.16113281 90.50390625 C-85.17074036 89.40175781 -85.1803479 88.29960937 -85.19024658 87.1640625 C-85.19449646 85.97554688 -85.19874634 84.78703125 -85.203125 83.5625 C-85.20882507 82.33144531 -85.21452515 81.10039062 -85.22039795 79.83203125 C-85.2298474 77.22282774 -85.23638171 74.6136123 -85.24023438 72.00439453 C-85.24675378 68.04312903 -85.28090169 64.0822376 -85.3125 60.12109375 C-85.31903492 57.58073223 -85.32428347 55.04036702 -85.328125 52.5 C-85.3404718 51.32767822 -85.3528186 50.15535645 -85.36553955 48.94750977 C-85.32140055 32.36665028 -79.94496024 18.25712979 -68.37109375 6.21484375 C-49.08652268 -11.79891539 -22.2934403 -13.84666995 0 0 Z " fill="#FDFEFB" transform="translate(411,106)"/>
<path d="M0 0 C11.68057011 11.12013872 17.94472834 25.50021202 18.43139648 41.47143555 C18.46453423 43.77639263 18.48552808 46.08154768 18.49609375 48.38671875 C18.50512222 49.62436478 18.5141507 50.8620108 18.52345276 52.13716125 C18.53789554 54.74498092 18.54682704 57.35283634 18.55053711 59.96069336 C18.56241329 63.90867519 18.61164678 67.85508235 18.66210938 71.80273438 C18.79244777 92.09531493 16.49991373 108.77377228 2.2265625 124.3046875 C-9.58599071 135.23898396 -23.12945686 139.74900693 -38.96484375 139.45703125 C-52.93818073 138.71718424 -66.38694382 132.47188569 -75.828125 122.10546875 C-80.76500785 116.30006021 -84.26469195 110.40759381 -86.875 103.25 C-87.12256546 102.58660614 -87.37013092 101.92321228 -87.62519836 101.23971558 C-90.06971884 94.04196868 -90.31163409 87.34508372 -90.2734375 79.7890625 C-90.27630768 78.52210541 -90.27917786 77.25514832 -90.28213501 75.94979858 C-90.28416762 73.28196825 -90.28023062 70.61497508 -90.26611328 67.94726562 C-90.24905773 64.56305933 -90.25885842 61.17956906 -90.27683067 57.79538918 C-90.29041237 54.52242308 -90.28084095 51.24953803 -90.2734375 47.9765625 C-90.27951019 46.77931549 -90.28558289 45.58206848 -90.2918396 44.34854126 C-90.16011748 28.35713976 -85.54131631 14.20796649 -74.36328125 2.50390625 C-53.10621328 -16.75092612 -22.63691597 -17.78983146 0 0 Z " fill="#FDFDFC" transform="translate(227.875,109.75)"/>
<path d="M0 0 C2.82814576 1.97670027 2.79069958 4.4216981 3.37988281 7.66674805 C3.89074079 11.66614679 4.00011363 15.59894097 3.95214844 19.62719727 C3.94465576 20.4626709 3.93716309 21.29814453 3.92944336 22.15893555 C3.82675978 28.04115569 3.4691076 33.54472774 1.70214844 39.18969727 C1.24195313 40.68823242 1.24195313 40.68823242 0.77246094 42.21704102 C-4.9217617 58.73028665 -15.94497448 71.830229 -31.29785156 80.18969727 C-48.94544601 88.43542125 -67.55544614 91.51120813 -86.40527344 84.92163086 C-104.3740707 77.97239786 -119.13905723 65.5261095 -127.23535156 47.78735352 C-127.58597656 46.93012695 -127.93660156 46.07290039 -128.29785156 45.18969727 C-128.68972656 44.2396582 -129.08160156 43.28961914 -129.48535156 42.31079102 C-132.86757287 32.92747566 -132.6946791 24.01117873 -132.29785156 14.18969727 C-133.28785156 13.85969727 -134.27785156 13.52969727 -135.29785156 13.18969727 C-123.55677238 13.87066489 -112.00860938 15.84001779 -100.4074707 17.68115234 C-97.77415409 18.09741792 -95.13963554 18.50529167 -92.50488281 18.91235352 C-91.71402786 19.04045914 -90.92317291 19.16856476 -90.10835266 19.30055237 C-81.77304166 20.58023232 -74.64923239 20.79299379 -66.59863281 17.91625977 C-65.89297684 17.67666031 -65.18732086 17.43706085 -64.46028137 17.19020081 C-62.95266094 16.67635513 -61.447148 16.15628985 -59.94366455 15.63046265 C-57.57688674 14.8029974 -55.20475226 13.99295538 -52.83056641 13.18701172 C-46.47324083 11.02435494 -40.12870738 8.82504223 -33.78466797 6.6237793 C-30.31428845 5.42012554 -26.84000047 4.2283995 -23.36312866 3.04364014 C-21.46031689 2.39006579 -19.56320551 1.71997005 -17.66625977 1.04956055 C-16.51601318 0.65623535 -15.3657666 0.26291016 -14.18066406 -0.14233398 C-13.18437988 -0.49013916 -12.1880957 -0.83794434 -11.16162109 -1.19628906 C-7.05071448 -2.07769828 -3.91724439 -1.38135722 0 0 Z " fill="#B1E762" transform="translate(248.2978515625,292.810302734375)"/>
<path d="M0 0 C7.14967879 4.64186566 12.11378105 11.67336954 14.5585022 19.87329102 C15.03207652 22.15451364 15.15494948 24.24901922 15.19287109 26.578125 C15.20893402 27.48006592 15.22499695 28.38200684 15.24154663 29.3112793 C15.28644419 33.44855701 15.32710138 37.58567928 15.35009766 41.72314453 C15.36659121 43.89350151 15.39379288 46.06380566 15.43212891 48.23388672 C15.84075332 71.51837154 15.84075332 71.51837154 10 81 C9.63148926 81.59989746 9.26297852 82.19979492 8.88330078 82.81787109 C4.7763173 88.46077084 -2.39192638 92.92781506 -9 95 C-20.57271947 95.94797808 -30.09296465 95.56852091 -39.25 87.875 C-46.404925 81.03115869 -50.98889945 72.76417276 -51.22705078 62.71704102 C-51.22673861 61.1459605 -51.21570835 59.5748544 -51.1953125 58.00390625 C-51.1924826 57.17036118 -51.18965271 56.3368161 -51.18673706 55.47801208 C-51.17562289 52.8393564 -51.15053515 50.20105152 -51.125 47.5625 C-51.11495885 45.76367681 -51.10583499 43.96484825 -51.09765625 42.16601562 C-51.07571235 37.77721045 -51.04124387 33.38866452 -51 29 C-50.39333496 29.16008545 -49.78666992 29.3201709 -49.16162109 29.48510742 C-43.48380993 30.83754742 -37.79373197 30.83280413 -32.5 28.375 C-28.63725884 24.7053959 -26.87635163 21.30510501 -26.5625 16 C-26.74972331 11.73456459 -28.18993516 9.25375928 -31 6 C-32.93912256 4.47707936 -34.86824405 3.25967397 -37 2 C-27.71763397 -9.21619229 -11.2470618 -6.34160013 0 0 Z " fill="#4D4D4D" transform="translate(391,131)"/>
<path d="M0 0 C0.63550781 0.33902344 1.27101562 0.67804688 1.92578125 1.02734375 C8.98539543 5.42590602 13.91429036 13.05697272 16 21 C16.31121113 24.72361258 16.32787702 28.436701 16.3359375 32.171875 C16.3459227 33.78826874 16.3459227 33.78826874 16.35610962 35.43731689 C16.3662143 37.7134023 16.37092732 39.98951719 16.37060547 42.265625 C16.37496779 45.7244631 16.41128241 49.18201329 16.44921875 52.640625 C16.45508972 54.85937067 16.45905724 57.07812236 16.4609375 59.296875 C16.47530853 60.32012878 16.48967957 61.34338257 16.50448608 62.39764404 C16.43968494 72.72785894 13.3225432 80.5215198 6.22265625 88.01953125 C-2.48005201 95.7739655 -11.81353547 96.85073657 -23.05126953 96.2265625 C-27.67065367 95.68950556 -31.24728004 93.61089051 -35 91 C-35.96486328 90.38318359 -35.96486328 90.38318359 -36.94921875 89.75390625 C-43.37554798 85.05613412 -46.54091467 77.37725598 -49 70 C-49.08589303 68.60344541 -49.11772715 67.20314223 -49.11352539 65.80395508 C-49.11344986 64.96331009 -49.11337433 64.1226651 -49.11329651 63.25654602 C-49.10813522 62.35333115 -49.10297394 61.45011627 -49.09765625 60.51953125 C-49.0962413 59.59154221 -49.09482635 58.66355316 -49.09336853 57.70744324 C-49.08776937 54.74242942 -49.07521704 51.77749101 -49.0625 48.8125 C-49.05748489 46.80273547 -49.052922 44.79296975 -49.04882812 42.78320312 C-49.03780021 37.85543968 -49.02053617 32.92773263 -49 28 C-48.06736328 28.48605713 -47.13472656 28.97211426 -46.17382812 29.47290039 C-41.4215866 31.75945968 -37.17053483 31.6847881 -32 31 C-28.14567864 29.21049365 -26.50226624 27.73665715 -24.125 24.25 C-22.6780437 20.06990402 -22.57882162 17.422373 -23 13 C-24.38885248 10.18219466 -24.38885248 10.18219466 -26 8 C-26 7.34 -26 6.68 -26 6 C-26.763125 5.731875 -27.52625 5.46375 -28.3125 5.1875 C-30.87380884 4.05575888 -32.19692938 3.08776599 -34 1 C-23.26634402 -5.94530681 -11.18096172 -5.99616177 0 0 Z " fill="#4C4C4C" transform="translate(216,130)"/>
<path d="M0 0 C6.51228262 4.64993586 11.73099228 11.84287972 14.25 19.4375 C14.375 22.75 14.375 22.75 14.25 25.4375 C11.61 25.7675 8.97 26.0975 6.25 26.4375 C6.1675 27.406875 6.085 28.37625 6 29.375 C5.04665468 35.99470765 2.04980898 42.76400178 -2.75 47.4375 C-11.56525523 53.37726835 -18.06125816 55.32518846 -28.75 54.4375 C-36.84002341 52.33605381 -42.39751502 48.79405344 -46.9375 41.75 C-49.66914234 37.02404809 -50.88406086 32.80632264 -51.75 27.4375 C-55.38 26.7775 -59.01 26.1175 -62.75 25.4375 C-60.03476061 13.36976936 -54.82598332 5.7414199 -44.75 -1.5625 C-30.57680768 -10.08291984 -13.8964709 -8.16743179 0 0 Z " fill="#FDC200" transform="translate(309.75,202.5625)"/>
<path d="M0 0 C5.4446287 5.57124797 7.28989039 10.09305822 7.375 17.8125 C7.25320861 25.57467119 5.60689274 29.89991133 0.6875 35.75 C-4.8407279 40.37828382 -10.156748 43.08288705 -17.42626953 43.17700195 C-18.29462433 43.18983719 -19.16297913 43.20267242 -20.05764771 43.21589661 C-20.98995209 43.22328354 -21.92225647 43.23067047 -22.8828125 43.23828125 C-24.33698074 43.25038887 -24.33698074 43.25038887 -25.82052612 43.26274109 C-27.87317121 43.27656254 -29.9258391 43.28729335 -31.97851562 43.29516602 C-34.06549878 43.30666321 -36.15245306 43.32707894 -38.23925781 43.35668945 C-41.26647783 43.39962704 -44.29282471 43.41557321 -47.3203125 43.42578125 C-48.2404715 43.44328934 -49.16063049 43.46079742 -50.1086731 43.47883606 C-58.15287765 43.45231209 -64.55806057 41.20803661 -71.3125 36.875 C-75.60574061 32.28223097 -78.87695047 27.07261905 -79.1328125 20.68359375 C-79.08898437 19.79800781 -79.04515625 18.91242188 -79 18 C-77.8140625 17.81824219 -76.628125 17.63648438 -75.40625 17.44921875 C-70.26714089 16.65542043 -65.13303672 15.83206307 -60 15 C-59.29649414 14.88785156 -58.59298828 14.77570313 -57.86816406 14.66015625 C-41.66595827 12.03671063 -25.8396531 7.62831938 -10.77197266 1.09667969 C-6.8198398 -0.5604573 -4.09158161 -1.62926043 0 0 Z " fill="#F39000" transform="translate(377,453)"/>
<path d="M0 0 C5.26289113 0.63488845 9.73465251 2.33124589 14.625 4.25 C35.8525647 12.21848867 57.63675068 15.06788763 80 18 C79.41727824 26.30209772 77.50251639 31.76536788 71.29296875 37.60546875 C64.48545968 42.84556038 57.31743955 43.30921416 49.0078125 43.30078125 C48.06243622 43.30506638 47.11705994 43.3093515 46.14303589 43.31376648 C44.15119219 43.3194868 42.15932762 43.32002706 40.16748047 43.31567383 C37.1412341 43.31251693 34.11596933 43.33599152 31.08984375 43.36132812 C29.14583455 43.36360186 27.20182276 43.36430427 25.2578125 43.36328125 C24.36377716 43.372491 23.46974182 43.38170074 22.5486145 43.39118958 C13.92866591 43.32858535 5.24778037 41.32548908 -1 35 C-5.60177654 28.33576921 -7.8050291 22.16529521 -7 14 C-5.74551681 8.46551534 -3.9297462 4.20076318 0 0 Z " fill="#F39000" transform="translate(197,453)"/>
<path d="M0 0 C2.54186606 0.31094086 5.08348598 0.62370536 7.625 0.9375 C8.69427734 1.06801758 8.69427734 1.06801758 9.78515625 1.20117188 C12.96604256 1.59513486 16.12324638 2.02066319 19.28515625 2.55078125 C27.03457002 3.83305835 34.11757176 2.59778278 41.70825195 1.06738281 C46.56144753 0.12091132 51.05342902 -0.13354072 56 0 C55.62550155 7.86446742 53.96814107 14.1816001 48.13671875 19.79296875 C39.93458385 26.24319135 32.36105945 28.11845363 22 27 C13.66124946 24.79965311 8.24827424 21.25895961 3.75 13.875 C0.7996398 8.74988975 -0.11152764 6.0224927 0 0 Z " fill="#F29000" transform="translate(259,230)"/>
<path d="M0 0 C2.75 1.875 2.75 1.875 3.9375 4.8125 C3.75 7.875 3.75 7.875 2.07275391 10.04907227 C-0.76996241 12.28374489 -2.03438783 12.32016353 -5.6015625 12.15234375 C-6.61734375 12.10787109 -7.633125 12.06339844 -8.6796875 12.01757812 C-10.26136719 11.91606445 -10.26136719 11.91606445 -11.875 11.8125 C-12.9371875 11.77189453 -13.999375 11.73128906 -15.09375 11.68945312 C-20.92621148 11.38150509 -20.92621148 11.38150509 -23.25 10.875 C-25.25 7.875 -25.25 7.875 -25.3125 4.875 C-24.25 1.875 -24.25 1.875 -21.5 0 C-14.93099704 -2.28014979 -6.56900296 -2.28014979 0 0 Z " fill="#FFDC00" transform="translate(298.25,201.125)"/>
</svg>
